<svg xmlns="http://www.w3.org/2000/svg" viewBox="0 0 300 200" width="300" height="200">
  <!-- Golden hour afternoon -->
  <defs>
    <linearGradient id="sky1" x1="0%" y1="0%" x2="0%" y2="100%">
      <stop offset="0%" style="stop-color:#f0a830"/>
      <stop offset="60%" style="stop-color:#f8d080"/>
      <stop offset="100%" style="stop-color:#a0d8f0"/>
    </linearGradient>
  </defs>
  <rect width="300" height="200" fill="url(#sky1)" rx="12"/>
  <circle cx="260" cy="55" r="32" fill="#fff080" opacity="0.9"/>
  <circle cx="260" cy="55" r="40" fill="#f0c040" opacity="0.2"/>
  <rect x="0" y="145" width="300" height="55" fill="#2a5a18"/>
  <rect x="0" y="143" width="300" height="6" fill="#6a8020"/>
  <rect x="10" y="151" width="22" height="4" fill="#f8f0a0" rx="2"/>
  <rect x="52" y="151" width="22" height="4" fill="#f8f0a0" rx="2"/>
  <rect x="94" y="151" width="22" height="4" fill="#f8f0a0" rx="2"/>
  <rect x="136" y="151" width="22" height="4" fill="#f8f0a0" rx="2"/>
  <rect x="178" y="151" width="22" height="4" fill="#f8f0a0" rx="2"/>
  <rect x="220" y="151" width="22" height="4" fill="#f8f0a0" rx="2"/>
  <rect x="262" y="151" width="22" height="4" fill="#f8f0a0" rx="2"/>
  <polygon points="0,143 30,65 60,143" fill="#1a5a10"/>
  <polygon points="28,143 58,50 88,143" fill="#2a6a20"/>
  <polygon points="55,143 82,68 110,143" fill="#1a5a10"/>
  <polygon points="105,143 138,42 170,143" fill="#2a6a20"/>
  <polygon points="135,143 168,32 200,143" fill="#3a7a28"/>
  <polygon points="192,143 222,55 252,143" fill="#2a6a20"/>
  <polygon points="220,143 250,45 280,143" fill="#1a5a10"/>
  <polygon points="248,143 272,62 296,143" fill="#2a6a20"/>
  <ellipse cx="60" cy="40" rx="28" ry="10" fill="#fff" opacity="0.7"/>
  <ellipse cx="48" cy="40" rx="14" ry="8" fill="#fff" opacity="0.7"/>
  <g transform="translate(90,100)">
    <rect x="0" y="14" width="85" height="28" fill="#3a6aaa" rx="8"/>
    <rect x="10" y="3" width="62" height="20" fill="#4a7aba" rx="8"/>
    <rect x="16" y="6" width="18" height="12" fill="#d0f0e0" rx="3" opacity="0.9"/>
    <rect x="42" y="6" width="18" height="12" fill="#d0f0e0" rx="3" opacity="0.9"/>
    <circle cx="14" cy="42" r="9" fill="#1a1a1a"/>
    <circle cx="14" cy="42" r="5" fill="#555"/>
    <circle cx="71" cy="42" r="9" fill="#1a1a1a"/>
    <circle cx="71" cy="42" r="5" fill="#555"/>
    <circle cx="22" cy="17" r="3" fill="#f0e8d0" opacity="0.9"/>
    <circle cx="62" cy="17" r="3" fill="#f0a830" opacity="0.9"/>
    <text x="42" y="26" text-anchor="middle" font-family="Arial,sans-serif" font-size="7" fill="#f0e8d0" font-weight="bold">ADVENTURE!</text>
  </g>
  <text x="150" y="16" text-anchor="middle" font-family="Georgia,serif" font-size="16" fill="#8a4010" font-weight="bold">~1 HOUR</text>
  <text x="150" y="193" text-anchor="middle" font-family="Arial,sans-serif" font-size="11" fill="#2a4010" font-weight="bold">Old Faithful · Idaho Falls</text>
</svg>