<svg width="100%" viewBox="0 0 680 320" role="img" xmlns="http://www.w3.org/2000/svg">
<title>Campfire s'more illustration</title>
<desc>A cute illustrated s'more with graham crackers, chocolate, and a toasted marshmallow next to a campfire</desc>
<rect width="680" height="320" fill="#1a1f2e" rx="12"/>
<circle cx="60" cy="30" r="1.5" fill="#fff" opacity="0.7"/>
<circle cx="120" cy="15" r="1" fill="#fff" opacity="0.5"/>
<circle cx="180" cy="40" r="1.5" fill="#fff" opacity="0.6"/>
<circle cx="250" cy="20" r="1" fill="#fff" opacity="0.8"/>
<circle cx="320" cy="10" r="1.5" fill="#fff" opacity="0.5"/>
<circle cx="400" cy="25" r="1" fill="#fff" opacity="0.7"/>
<circle cx="470" cy="15" r="1.5" fill="#fff" opacity="0.6"/>
<circle cx="540" cy="35" r="1" fill="#fff" opacity="0.8"/>
<circle cx="610" cy="20" r="1.5" fill="#fff" opacity="0.5"/>
<circle cx="640" cy="45" r="1" fill="#fff" opacity="0.7"/>
<circle cx="85" cy="60" r="1" fill="#fff" opacity="0.4"/>
<circle cx="560" cy="55" r="1" fill="#fff" opacity="0.5"/>
<ellipse cx="340" cy="295" rx="300" ry="25" fill="#1e2a1a" opacity="0.8"/>
<rect x="480" y="252" width="90" height="14" rx="7" fill="#5c3a1e" transform="rotate(-15, 525, 259)"/>
<rect x="475" y="252" width="90" height="14" rx="7" fill="#6b4423" transform="rotate(15, 520, 259)"/>
<rect x="490" y="256" width="70" height="12" rx="6" fill="#4a2e14"/>
<ellipse cx="525" cy="250" rx="45" ry="20" fill="#c8520a" opacity="0.15"/>
<ellipse cx="525" cy="255" rx="35" ry="15" fill="#e8720a" opacity="0.12"/>
<path d="M510 255 Q505 230 515 210 Q520 225 518 235 Q530 205 525 185 Q535 200 532 220 Q540 200 538 215 Q545 225 540 255Z" fill="#e85020" opacity="0.9"/>
<path d="M520 255 Q516 235 523 218 Q528 230 526 242 Q534 215 530 200 Q540 212 537 235 Q542 218 540 240 Q543 248 535 255Z" fill="#f07820" opacity="0.85"/>
<path d="M518 255 Q515 238 522 225 Q527 237 524 248 Q532 228 529 218 Q537 228 533 245 Q536 250 528 255Z" fill="#ffd040" opacity="0.8"/>
<circle cx="515" cy="205" r="2" fill="#ffd040" opacity="0.7"/>
<circle cx="535" cy="195" r="1.5" fill="#ff9020" opacity="0.6"/>
<circle cx="525" cy="200" r="1" fill="#fff" opacity="0.5"/>
<circle cx="508" cy="215" r="1.5" fill="#ffd040" opacity="0.5"/>
<ellipse cx="270" cy="282" rx="110" ry="10" fill="#000" opacity="0.3"/>
<rect x="160" y="240" width="220" height="38" rx="5" fill="#c8973a"/>
<rect x="160" y="240" width="220" height="38" rx="5" fill="none" stroke="#a07020" stroke-width="1.5"/>
<line x1="270" y1="244" x2="270" y2="274" stroke="#a07020" stroke-width="1" opacity="0.5"/>
<line x1="164" y1="259" x2="376" y2="259" stroke="#a07020" stroke-width="1" opacity="0.5"/>
<circle cx="225" cy="251" r="2" fill="#a07020" opacity="0.4"/>
<circle cx="225" cy="267" r="2" fill="#a07020" opacity="0.4"/>
<circle cx="315" cy="251" r="2" fill="#a07020" opacity="0.4"/>
<circle cx="315" cy="267" r="2" fill="#a07020" opacity="0.4"/>
<rect x="168" y="218" width="204" height="26" rx="3" fill="#4a2010"/>
<rect x="168" y="218" width="204" height="26" rx="3" fill="none" stroke="#3a1808" stroke-width="1"/>
<line x1="219" y1="218" x2="219" y2="244" stroke="#3a1808" stroke-width="1.5"/>
<line x1="270" y1="218" x2="270" y2="244" stroke="#3a1808" stroke-width="1.5"/>
<line x1="321" y1="218" x2="321" y2="244" stroke="#3a1808" stroke-width="1.5"/>
<rect x="174" y="221" width="40" height="6" rx="2" fill="#6a3820" opacity="0.5"/>
<rect x="225" y="221" width="40" height="6" rx="2" fill="#6a3820" opacity="0.5"/>
<rect x="276" y="221" width="40" height="6" rx="2" fill="#6a3820" opacity="0.5"/>
<rect x="175" y="168" width="190" height="55" rx="22" fill="#f5edd8"/>
<rect x="175" y="168" width="190" height="55" rx="22" fill="none" stroke="#e8d5b0" stroke-width="1"/>
<ellipse cx="220" cy="180" rx="25" ry="12" fill="#c8813a" opacity="0.45"/>
<ellipse cx="330" cy="192" rx="20" ry="10" fill="#b87030" opacity="0.4"/>
<ellipse cx="270" cy="205" rx="22" ry="8" fill="#d09040" opacity="0.35"/>
<ellipse cx="195" cy="200" rx="15" ry="7" fill="#c07830" opacity="0.3"/>
<ellipse cx="230" cy="178" rx="30" ry="8" fill="#fff" opacity="0.4"/>
<rect x="163" y="133" width="214" height="38" rx="5" fill="#c8973a"/>
<rect x="163" y="133" width="214" height="38" rx="5" fill="none" stroke="#a07020" stroke-width="1.5"/>
<line x1="270" y1="137" x2="270" y2="167" stroke="#a07020" stroke-width="1" opacity="0.5"/>
<line x1="167" y1="152" x2="373" y2="152" stroke="#a07020" stroke-width="1" opacity="0.5"/>
<circle cx="225" cy="144" r="2" fill="#a07020" opacity="0.4"/>
<circle cx="225" cy="160" r="2" fill="#a07020" opacity="0.4"/>
<circle cx="315" cy="144" r="2" fill="#a07020" opacity="0.4"/>
<circle cx="315" cy="160" r="2" fill="#a07020" opacity="0.4"/>
<path d="M175 190 Q160 195 162 210 Q165 218 175 218Z" fill="#f5edd8" opacity="0.8"/>
<path d="M365 185 Q382 190 380 208 Q377 218 365 218Z" fill="#f5edd8" opacity="0.8"/>
<line x1="365" y1="195" x2="490" y2="255" stroke="#8a5a2a" stroke-width="4" stroke-linecap="round"/>
<circle cx="365" cy="195" r="5" fill="#c8813a"/>
<text x="270" y="310" text-anchor="middle" font-family="Georgia, serif" font-size="15" fill="#c8973a" opacity="0.9">graham · chocolate · toasted marshmallow · perfection</text>
<rect x="155" y="125" width="225" height="165" rx="22" fill="#e85020" opacity="0.04"/>
</svg>
